<svg xmlns="http://www.w3.org/2000/svg" viewBox="0 0 1024 1024" role="img" aria-label="Fake QR code placeholder for clearance signage">
  <rect width="1024" height="1024" rx="68" fill="#fff9f3"/>
  <rect x="56" y="56" width="912" height="912" rx="46" fill="#ffffff" stroke="#7a2f1c" stroke-width="18"/>
  <rect x="120" y="120" width="216" height="216" rx="28" fill="#7a2f1c"/>
  <rect x="160" y="160" width="136" height="136" rx="16" fill="#ffffff"/>
  <rect x="192" y="192" width="72" height="72" rx="10" fill="#7a2f1c"/>
  <rect x="688" y="120" width="216" height="216" rx="28" fill="#7a2f1c"/>
  <rect x="728" y="160" width="136" height="136" rx="16" fill="#ffffff"/>
  <rect x="760" y="192" width="72" height="72" rx="10" fill="#7a2f1c"/>
  <rect x="120" y="688" width="216" height="216" rx="28" fill="#7a2f1c"/>
  <rect x="160" y="728" width="136" height="136" rx="16" fill="#ffffff"/>
  <rect x="192" y="760" width="72" height="72" rx="10" fill="#7a2f1c"/>
  <g fill="#7a2f1c">
    <rect x="392" y="124" width="32" height="32"/>
    <rect x="456" y="124" width="32" height="32"/>
    <rect x="520" y="124" width="32" height="32"/>
    <rect x="584" y="124" width="32" height="32"/>
    <rect x="648" y="124" width="32" height="32"/>
    <rect x="392" y="188" width="32" height="32"/>
    <rect x="520" y="188" width="32" height="32"/>
    <rect x="584" y="188" width="32" height="32"/>
    <rect x="392" y="252" width="32" height="32"/>
    <rect x="456" y="252" width="32" height="32"/>
    <rect x="584" y="252" width="32" height="32"/>
    <rect x="712" y="252" width="32" height="32"/>
    <rect x="392" y="348" width="32" height="32"/>
    <rect x="456" y="348" width="32" height="32"/>
    <rect x="520" y="348" width="32" height="32"/>
    <rect x="584" y="348" width="32" height="32"/>
    <rect x="648" y="348" width="32" height="32"/>
    <rect x="392" y="412" width="32" height="32"/>
    <rect x="520" y="412" width="32" height="32"/>
    <rect x="584" y="412" width="32" height="32"/>
    <rect x="648" y="412" width="32" height="32"/>
    <rect x="392" y="508" width="32" height="32"/>
    <rect x="456" y="508" width="32" height="32"/>
    <rect x="584" y="508" width="32" height="32"/>
    <rect x="712" y="508" width="32" height="32"/>
    <rect x="392" y="604" width="32" height="32"/>
    <rect x="456" y="604" width="32" height="32"/>
    <rect x="520" y="604" width="32" height="32"/>
    <rect x="648" y="604" width="32" height="32"/>
    <rect x="392" y="668" width="32" height="32"/>
    <rect x="520" y="668" width="32" height="32"/>
    <rect x="584" y="668" width="32" height="32"/>
    <rect x="712" y="668" width="32" height="32"/>
    <rect x="392" y="764" width="32" height="32"/>
    <rect x="456" y="764" width="32" height="32"/>
    <rect x="584" y="764" width="32" height="32"/>
    <rect x="648" y="764" width="32" height="32"/>
    <rect x="712" y="764" width="32" height="32"/>
  </g>
  <rect x="398" y="854" width="228" height="36" rx="18" fill="#f0a35f"/>
  <text x="512" y="936" text-anchor="middle" fill="#7a2f1c" font-family="Arial, sans-serif" font-size="36" font-weight="700" letter-spacing="2.6">SCAN BEFORE STOCK RUNS OUT</text>
</svg>
