<svg xmlns="http://www.w3.org/2000/svg" viewBox="0 0 1024 1024" role="img" aria-label="Fake QR code placeholder for retail handoff">
  <defs>
    <linearGradient id="bg" x1="0" y1="0" x2="1" y2="1">
      <stop offset="0" stop-color="#f9fbff"/>
      <stop offset="1" stop-color="#eef4ff"/>
    </linearGradient>
  </defs>
  <rect width="1024" height="1024" rx="72" fill="url(#bg)"/>
  <rect x="60" y="60" width="904" height="904" rx="52" fill="#ffffff" stroke="#1d2b4f" stroke-width="20"/>
  <rect x="124" y="124" width="224" height="224" rx="28" fill="#1d2b4f"/>
  <rect x="164" y="164" width="144" height="144" rx="18" fill="#ffffff"/>
  <rect x="200" y="200" width="72" height="72" rx="10" fill="#1d2b4f"/>
  <rect x="676" y="124" width="224" height="224" rx="28" fill="#1d2b4f"/>
  <rect x="716" y="164" width="144" height="144" rx="18" fill="#ffffff"/>
  <rect x="752" y="200" width="72" height="72" rx="10" fill="#1d2b4f"/>
  <rect x="124" y="676" width="224" height="224" rx="28" fill="#1d2b4f"/>
  <rect x="164" y="716" width="144" height="144" rx="18" fill="#ffffff"/>
  <rect x="200" y="752" width="72" height="72" rx="10" fill="#1d2b4f"/>
  <g fill="#1d2b4f">
    <rect x="420" y="132" width="36" height="36"/>
    <rect x="492" y="132" width="36" height="36"/>
    <rect x="564" y="132" width="36" height="36"/>
    <rect x="420" y="204" width="36" height="36"/>
    <rect x="528" y="204" width="36" height="36"/>
    <rect x="600" y="204" width="36" height="36"/>
    <rect x="420" y="276" width="36" height="36"/>
    <rect x="492" y="276" width="36" height="36"/>
    <rect x="636" y="276" width="36" height="36"/>
    <rect x="420" y="348" width="36" height="36"/>
    <rect x="492" y="348" width="36" height="36"/>
    <rect x="564" y="348" width="36" height="36"/>
    <rect x="636" y="348" width="36" height="36"/>
    <rect x="420" y="420" width="36" height="36"/>
    <rect x="492" y="420" width="36" height="36"/>
    <rect x="600" y="420" width="36" height="36"/>
    <rect x="744" y="420" width="36" height="36"/>
    <rect x="420" y="492" width="36" height="36"/>
    <rect x="528" y="492" width="36" height="36"/>
    <rect x="600" y="492" width="36" height="36"/>
    <rect x="708" y="492" width="36" height="36"/>
    <rect x="780" y="492" width="36" height="36"/>
    <rect x="420" y="564" width="36" height="36"/>
    <rect x="492" y="564" width="36" height="36"/>
    <rect x="564" y="564" width="36" height="36"/>
    <rect x="672" y="564" width="36" height="36"/>
    <rect x="744" y="564" width="36" height="36"/>
    <rect x="816" y="564" width="36" height="36"/>
    <rect x="420" y="636" width="36" height="36"/>
    <rect x="492" y="636" width="36" height="36"/>
    <rect x="600" y="636" width="36" height="36"/>
    <rect x="708" y="636" width="36" height="36"/>
    <rect x="780" y="636" width="36" height="36"/>
    <rect x="420" y="708" width="36" height="36"/>
    <rect x="528" y="708" width="36" height="36"/>
    <rect x="600" y="708" width="36" height="36"/>
    <rect x="672" y="708" width="36" height="36"/>
    <rect x="744" y="708" width="36" height="36"/>
    <rect x="492" y="780" width="36" height="36"/>
    <rect x="564" y="780" width="36" height="36"/>
    <rect x="636" y="780" width="36" height="36"/>
    <rect x="708" y="780" width="36" height="36"/>
  </g>
  <rect x="404" y="864" width="216" height="34" rx="17" fill="#ff8b5c"/>
  <text x="512" y="848" text-anchor="middle" fill="#1d2b4f" font-family="Arial, sans-serif" font-size="44" font-weight="700" letter-spacing="3">SCAN TO CONTINUE</text>
  <text x="512" y="946" text-anchor="middle" fill="#51627f" font-family="Arial, sans-serif" font-size="24" letter-spacing="1.8">RETAIL HANDOFF PLACEHOLDER</text>
</svg>
