<svg xmlns="http://www.w3.org/2000/svg" viewBox="0 0 1024 1024" role="img" aria-label="Fake QR code placeholder for menu board">
  <rect width="1024" height="1024" rx="64" fill="#fbf8f2"/>
  <rect x="64" y="64" width="896" height="896" rx="44" fill="#ffffff" stroke="#1f3b34" stroke-width="18"/>
  <circle cx="512" cy="512" r="280" fill="#e9f4ef"/>
  <rect x="124" y="124" width="206" height="206" rx="26" fill="#1f3b34"/>
  <rect x="160" y="160" width="134" height="134" rx="16" fill="#ffffff"/>
  <rect x="192" y="192" width="70" height="70" rx="10" fill="#1f3b34"/>
  <rect x="694" y="124" width="206" height="206" rx="26" fill="#1f3b34"/>
  <rect x="730" y="160" width="134" height="134" rx="16" fill="#ffffff"/>
  <rect x="762" y="192" width="70" height="70" rx="10" fill="#1f3b34"/>
  <rect x="124" y="694" width="206" height="206" rx="26" fill="#1f3b34"/>
  <rect x="160" y="730" width="134" height="134" rx="16" fill="#ffffff"/>
  <rect x="192" y="762" width="70" height="70" rx="10" fill="#1f3b34"/>
  <g fill="#1f3b34">
    <rect x="392" y="132" width="30" height="30"/>
    <rect x="448" y="132" width="30" height="30"/>
    <rect x="512" y="132" width="30" height="30"/>
    <rect x="576" y="132" width="30" height="30"/>
    <rect x="648" y="132" width="30" height="30"/>
    <rect x="392" y="188" width="30" height="30"/>
    <rect x="488" y="188" width="30" height="30"/>
    <rect x="560" y="188" width="30" height="30"/>
    <rect x="632" y="188" width="30" height="30"/>
    <rect x="392" y="260" width="30" height="30"/>
    <rect x="456" y="260" width="30" height="30"/>
    <rect x="528" y="260" width="30" height="30"/>
    <rect x="600" y="260" width="30" height="30"/>
    <rect x="672" y="260" width="30" height="30"/>
    <rect x="392" y="356" width="30" height="30"/>
    <rect x="488" y="356" width="30" height="30"/>
    <rect x="552" y="356" width="30" height="30"/>
    <rect x="648" y="356" width="30" height="30"/>
    <rect x="392" y="428" width="30" height="30"/>
    <rect x="456" y="428" width="30" height="30"/>
    <rect x="520" y="428" width="30" height="30"/>
    <rect x="592" y="428" width="30" height="30"/>
    <rect x="680" y="428" width="30" height="30"/>
    <rect x="392" y="524" width="30" height="30"/>
    <rect x="472" y="524" width="30" height="30"/>
    <rect x="560" y="524" width="30" height="30"/>
    <rect x="632" y="524" width="30" height="30"/>
    <rect x="704" y="524" width="30" height="30"/>
    <rect x="392" y="596" width="30" height="30"/>
    <rect x="456" y="596" width="30" height="30"/>
    <rect x="528" y="596" width="30" height="30"/>
    <rect x="616" y="596" width="30" height="30"/>
    <rect x="392" y="692" width="30" height="30"/>
    <rect x="488" y="692" width="30" height="30"/>
    <rect x="560" y="692" width="30" height="30"/>
    <rect x="648" y="692" width="30" height="30"/>
    <rect x="720" y="692" width="30" height="30"/>
    <rect x="392" y="764" width="30" height="30"/>
    <rect x="456" y="764" width="30" height="30"/>
    <rect x="528" y="764" width="30" height="30"/>
    <rect x="600" y="764" width="30" height="30"/>
    <rect x="672" y="764" width="30" height="30"/>
  </g>
  <rect x="388" y="856" width="248" height="34" rx="17" fill="#d49a3f"/>
  <text x="512" y="934" text-anchor="middle" fill="#1f3b34" font-family="Arial, sans-serif" font-size="34" font-weight="700" letter-spacing="2.2">SCAN TO VIEW MENU</text>
  <text x="512" y="972" text-anchor="middle" fill="#5f6f68" font-family="Arial, sans-serif" font-size="20" letter-spacing="1.4">COUNTER AND ORDERING PLACEHOLDER</text>
</svg>
